<svg fill="#000000" xmlns="http://www.w3.org/2000/svg"  viewBox="0 0 50 50" width="100px" height="100px"><path d="M 25 2 C 12.316406 2 2 12.316406 2 25 C 2 37.683594 12.316406 48 25 48 C 37.683594 48 48 37.683594 48 25 C 48 12.316406 37.683594 2 25 2 Z M 25 8 C 34.375 8 42 15.625 42 25 C 42 34.375 34.375 42 25 42 C 15.625 42 8 34.375 8 25 C 8 15.625 15.625 8 25 8 Z M 25 10 C 16.730469 10 10 16.730469 10 25 C 10 33.269531 16.730469 40 25 40 C 33.269531 40 40 33.269531 40 25 C 40 16.730469 33.269531 10 25 10 Z M 21.8125 15 L 28.1875 15 L 28.1875 25.78125 L 26.59375 27.40625 L 28.1875 29 L 28.1875 35 L 21.8125 35 L 21.8125 24.21875 L 23.40625 22.59375 L 21.8125 21 Z"/></svg>