<svg xmlns="http://www.w3.org/2000/svg"  viewBox="0 0 64 64" width="96px" height="96px"><linearGradient id="2NGendF6Yn3UTZlC6XcYha" x1="32" x2="32" y1="6" y2="58" gradientUnits="userSpaceOnUse"><stop offset="0" stop-color="#1a6dff"/><stop offset="1" stop-color="#c822ff"/></linearGradient><path fill="url(#2NGendF6Yn3UTZlC6XcYha)" d="M32,58C17.664,58,6,46.337,6,32C6,17.664,17.664,6,32,6s26,11.664,26,26 C58,46.337,46.336,58,32,58z M32,8C18.767,8,8,18.767,8,32s10.767,24,24,24s24-10.767,24-24S45.233,8,32,8z"/><linearGradient id="2NGendF6Yn3UTZlC6XcYhb" x1="32" x2="32" y1="11.667" y2="53.667" gradientUnits="userSpaceOnUse"><stop offset="0" stop-color="#6dc7ff"/><stop offset="1" stop-color="#e6abff"/></linearGradient><path fill="url(#2NGendF6Yn3UTZlC6XcYhb)" d="M32,11c-11.598,0-21,9.402-21,21c0,11.598,9.402,21,21,21s21-9.402,21-21 C53,20.402,43.598,11,32,11z M32,48c-8.837,0-16-7.163-16-16s7.163-16,16-16s16,7.163,16,16S40.837,48,32,48z"/><linearGradient id="2NGendF6Yn3UTZlC6XcYhc" x1="27.536" x2="27.536" y1="24.587" y2="40.34" gradientUnits="userSpaceOnUse"><stop offset="0" stop-color="#6dc7ff"/><stop offset="1" stop-color="#e6abff"/></linearGradient><path fill="url(#2NGendF6Yn3UTZlC6XcYhc)" d="M29,31.357l2.072-2.072L29,27.212v-2.625c-2.931,1.187-5,4.057-5,7.413s2.069,6.226,5,7.413 V31.357z"/><linearGradient id="2NGendF6Yn3UTZlC6XcYhd" x1="36.464" x2="36.464" y1="24.587" y2="40.34" gradientUnits="userSpaceOnUse"><stop offset="0" stop-color="#6dc7ff"/><stop offset="1" stop-color="#e6abff"/></linearGradient><path fill="url(#2NGendF6Yn3UTZlC6XcYhd)" d="M35,24.587v8.056l-2.072,2.073L35,36.788v2.625c2.931-1.187,5-4.057,5-7.413 S37.931,25.774,35,24.587z"/><linearGradient id="2NGendF6Yn3UTZlC6XcYhe" x1="32" x2="32" y1="20" y2="44" gradientUnits="userSpaceOnUse"><stop offset="0" stop-color="#1a6dff"/><stop offset="1" stop-color="#c822ff"/></linearGradient><path fill="url(#2NGendF6Yn3UTZlC6XcYhe)" d="M36,44h-8V30.943l1.658-1.658L28,27.626V20h8v13.057l-1.658,1.659L36,36.374V44z M30,42h4	v-4.798l-2.486-2.486L34,32.229V22h-4v4.798l2.486,2.487L30,31.771V42z"/></svg>